<?xml version="1.0" encoding="utf-8"?>
<svg width="101.9104px" viewBox="0 -2 104 80" version="1.1" xmlns:xlink="http://www.w3.org/1999/xlink" xmlns="http://www.w3.org/2000/svg">
  <path 
    d="M81.2436 36C82.3102 36 83.2436 34.9334 83.2436 33.7334C83.2436 31.8667 83.6436 31.8667 86.3102 34.2667C87.9102 35.7334 91.2436 38 93.5102 39.2C99.1102 42 101.91 47.4667 101.91 55.4667C101.91 60.9334 101.244 62.2667 96.7102 66.8C93.9102 69.7334 90.3102 72 88.8436 72C87.2436 72 85.3769 73.0667 84.7102 74.2667C83.6436 76.1334 83.1102 76.2667 82.1769 74.9334C81.5102 74 78.9769 72.1334 76.4436 70.9334C66.7102 66 62.9769 53.4667 68.5769 44.4C71.1102 40.1334 77.3769 36 81.2436 36ZM20.7102 38.4C13.7769 41.8667 10.5769 47.0667 10.7102 54.5334C10.8436 66.8 21.9102 75.2 33.6436 72.1334C50.5769 67.4667 51.3769 43.7334 34.8436 37.4667C29.5102 35.4667 25.9102 35.6 20.7102 38.4ZM37.5102 47.0667C42.3102 51.8667 42.0436 58.8 37.1102 63.3334C30.7102 69.2 21.7769 67.2 18.4436 59.3334C16.1769 53.7334 17.5102 49.6 22.8436 45.4667C27.2436 41.8667 33.1102 42.5334 37.5102 47.0667ZM86.7102 46C86.3102 47.0667 85.3769 48 84.7102 48C84.0436 48 83.2436 47.2 82.9769 46.1334C82.3102 43.2 74.3102 47.0667 72.4436 51.2C70.7102 54.9334 72.5769 61.2 76.1769 64.2667C77.9102 65.6 78.5769 65.3334 80.5769 62.9334C83.3769 59.4667 84.5769 59.2 84.5769 62C84.5769 64.5334 84.9769 64.5334 91.2436 61.3334C95.6436 59.0667 96.5769 57.8667 96.5769 54.8C96.5769 48 88.7102 40.9334 86.7102 46ZM41.2436 31.7334C40.5769 31.0667 43.7769 26.9333 49.2436 21.3334C60.4436 10 62.7102 9.60002 68.7102 18C72.5769 23.3334 73.6436 24 78.0436 24C80.8436 24 83.5102 24.6667 83.9102 25.3334C85.5103 28 81.6436 30.6667 76.4436 30.6667C71.5102 30.6667 68.5769 28.9334 66.0436 24.2667C64.9769 22.2667 64.0436 22.8 59.1102 27.7334L53.3769 33.3334L56.3102 35.4667C58.9769 37.3334 59.2436 38.6667 59.2436 48.6667C59.2436 59.7334 57.9102 63.2 54.8436 60.1334C54.0436 59.3334 53.6436 54.9334 53.7769 50.2667L54.0436 41.7334L48.3102 37.3334C45.1102 34.8 42.0436 32.4 41.2436 31.7334ZM37.1102 56.5334C38.3102 51.2 35.5102 47.8667 29.1102 46.6667L23.9102 45.6L28.4436 45.4667C34.1769 45.3334 39.2436 49.6 39.2436 54.8C39.2436 56.8 38.5769 58.9334 37.7769 59.4667C36.7102 60 36.5769 59.0667 37.1102 56.5334ZM0.0435715 29.0667C-0.356428 29.7334 2.04357 32.8 5.24357 36C9.37691 40 11.7769 41.4667 13.3769 40.8C15.3769 40 14.8436 39.0667 9.91024 34C4.1769 28.1334 1.51024 26.8 0.0435715 29.0667ZM52.3102 27.6C54.3102 25.6 57.1102 23.0667 58.5769 22C60.0436 20.9334 60.5769 20 59.9102 20C57.9102 20 48.5769 27.8667 48.5769 29.6C48.5769 30.4 50.1769 29.4667 52.3102 27.6ZM74.4436 10.9334C68.4436 13.7334 63.1102 6.93336 67.2436 1.86669C68.1769 0.933357 70.1769 2.28882e-05 71.7769 2.28882e-05C78.4436 2.28882e-05 80.4436 8.26669 74.4436 10.9334Z" 
    id="logo" 
    fill="currentColor" 
    fill-rule="evenodd" 
    stroke="none" 
  />
</svg>