<?xml version="1.0" standalone="no"?>
<!DOCTYPE svg PUBLIC "-//W3C//DTD SVG 20010904//EN"
 "http://www.w3.org/TR/2001/REC-SVG-20010904/DTD/svg10.dtd">
<svg version="1.0" xmlns="http://www.w3.org/2000/svg"
 width="114.000000pt" height="100.000000pt" viewBox="0 0 114.000000 100.000000"
 preserveAspectRatio="xMidYMid meet">
<metadata>
Created by potrace 1.10, written by Peter Selinger 2001-2011
</metadata>
<g transform="translate(0.000000,100.000000) scale(0.100000,-0.100000)"
fill="currentColor" stroke="none">
<path d="M620 846 c-31 -38 9 -89 54 -68 45 20 30 82 -20 82 -12 0 -27 -7 -34
-14z"/>
<path d="M485 700 c-41 -42 -65 -73 -60 -78 6 -5 29 -23 53 -42 l43 -33 -2
-64 c-1 -35 2 -68 8 -74 23 -23 33 3 33 86 0 75 -2 85 -22 99 l-22 16 43 42
c37 37 44 41 52 26 19 -35 41 -48 78 -48 39 0 68 20 56 40 -3 5 -23 10 -44 10
-33 0 -41 5 -70 45 -45 63 -62 60 -146 -25z m70 -5 c-11 -8 -32 -27 -47 -42
-16 -14 -28 -21 -28 -15 0 13 70 72 85 72 5 0 1 -7 -10 -15z"/>
<path d="M116 642 c-3 -5 15 -28 39 -52 31 -30 49 -41 61 -36 15 6 11 13 -26
51 -43 44 -63 54 -74 37z"/>
<path d="M740 607 c0 -9 -7 -17 -15 -17 -29 0 -76 -31 -95 -63 -42 -68 -14
-162 59 -199 19 -9 38 -23 43 -30 7 -10 11 -9 19 5 5 9 19 17 31 17 11 0 38
17 59 39 34 34 39 44 39 85 0 60 -21 101 -63 122 -17 9 -42 26 -54 37 -20 18
-23 18 -23 4z m11 -107 c5 0 12 7 15 15 15 38 74 -15 74 -66 0 -23 -7 -32 -40
-49 -47 -24 -50 -24 -50 -5 0 21 -9 19 -30 -7 -15 -18 -20 -20 -33 -10 -27 23
-41 70 -28 98 14 31 74 60 79 38 2 -8 8 -14 13 -14z"/>
<path d="M271 572 c-52 -26 -76 -65 -75 -121 1 -92 84 -155 172 -132 127 35
133 213 9 260 -40 15 -67 14 -106 -7z m126 -65 c36 -36 34 -88 -3 -122 -48
-44 -115 -29 -140 30 -17 42 -7 73 33 104 33 27 77 22 110 -12z"/>
<path d="M334 510 c48 -9 69 -34 60 -74 -4 -19 -3 -26 5 -22 6 4 11 20 11 35
0 39 -38 71 -81 70 l-34 -1 39 -8z"/>
<path d="M160 171 c0 -37 4 -51 14 -51 9 0 12 7 9 19 -4 15 1 20 19 23 17 2
23 9 23 28 0 21 -5 26 -32 28 l-33 3 0 -50z"/>
<path d="M570 170 c0 -54 19 -71 21 -17 l1 32 9 -32 c12 -41 24 -42 38 -3 5
17 12 30 15 30 3 0 3 -13 0 -30 -4 -19 -2 -30 5 -30 7 0 11 20 11 50 0 60 -24
70 -34 15 -8 -41 -21 -38 -31 5 -11 51 -35 37 -35 -20z"/>
<path d="M778 208 c-2 -7 -2 -29 2 -48 4 -28 10 -36 30 -38 23 -2 24 -1 8 11
-10 8 -18 20 -18 27 0 7 8 19 18 26 16 13 16 13 0 14 -10 0 -18 5 -18 10 0 14
-17 12 -22 -2z"/>
<path d="M255 191 c-3 -7 3 -11 17 -12 15 0 18 -3 8 -6 -63 -23 -44 -51 33
-49 50 1 62 4 65 19 2 10 -5 21 -20 26 l-23 10 23 0 c27 1 20 21 -8 21 -29 0
-36 -21 -12 -41 l21 -17 -24 -4 c-21 -4 -24 -1 -27 26 -2 23 -9 32 -25 34 -11
2 -24 -2 -28 -7z"/>
<path d="M395 190 c-7 -11 -1 -13 30 -11 17 2 16 0 -5 -11 -43 -23 -31 -43 28
-46 52 -2 52 -2 52 28 0 16 5 30 10 30 6 0 10 4 10 9 0 5 -11 9 -24 9 -19 0
-23 -5 -22 -27 2 -38 -18 -42 -22 -3 -3 26 -8 32 -27 32 -13 0 -27 -4 -30 -10z"/>
<path d="M702 188 c-27 -27 -3 -73 35 -66 27 5 25 72 -2 76 -11 1 -26 -3 -33
-10z m43 -28 c0 -8 -8 -16 -17 -18 -13 -2 -18 3 -18 18 0 15 5 20 18 18 9 -2
17 -10 17 -18z"/>
<path d="M840 181 c-25 -47 36 -83 64 -38 8 12 8 22 0 35 -16 25 -51 27 -64 3z
m50 -21 c0 -21 -24 -28 -35 -10 -8 14 3 30 21 30 8 0 14 -9 14 -20z"/>
<path d="M925 160 c-1 -26 3 -40 12 -40 8 0 13 12 13 30 0 17 5 30 10 30 6 0
10 5 10 10 0 6 -10 10 -22 10 -20 0 -23 -5 -23 -40z"/>
</g>
</svg>
